<mxfile host="drawio-plugin" modified="2023-12-05T21:14:17.829Z" agent="5.0 (Windows NT 6.2; Win64; x64) AppleWebKit/537.36 (KHTML, like Gecko) Chrome/104.0.5112.102 Safari/537.36" etag="8Xnbq52OBaf_fcy1IZy3" version="20.5.3" type="embed"><diagram id="MGRFIrOorHhDNhJ7VRQj" name="Сторінка-1"><mxGraphModel dx="1675" dy="527" grid="1" gridSize="10" guides="1" tooltips="1" connect="1" arrows="1" fold="1" page="1" pageScale="1" pageWidth="827" pageHeight="1169" background="none" math="0" shadow="0"><root><mxCell id="0"/><mxCell id="1" parent="0"/><mxCell id="RLsNyQYbH4PFIlgkzAy3-1" value="«interface»&lt;br&gt;&lt;b&gt;Iterable&lt;br&gt;&lt;/b&gt;" style="html=1;whiteSpace=wrap;" parent="1" vertex="1"><mxGeometry x="-30" y="50" width="110" height="50" as="geometry"/></mxCell><mxCell id="RLsNyQYbH4PFIlgkzAy3-19" style="edgeStyle=orthogonalEdgeStyle;rounded=0;orthogonalLoop=1;jettySize=auto;html=1;entryX=0.5;entryY=1;entryDx=0;entryDy=0;" parent="1" source="RLsNyQYbH4PFIlgkzAy3-2" target="RLsNyQYbH4PFIlgkzAy3-1" edge="1"><mxGeometry relative="1" as="geometry"/></mxCell><mxCell id="RLsNyQYbH4PFIlgkzAy3-2" value="«interface»&lt;br&gt;&lt;b&gt;Collection&lt;/b&gt;" style="html=1;whiteSpace=wrap;" parent="1" vertex="1"><mxGeometry x="-30" y="200" width="110" height="50" as="geometry"/></mxCell><mxCell id="RLsNyQYbH4PFIlgkzAy3-20" style="edgeStyle=orthogonalEdgeStyle;rounded=0;orthogonalLoop=1;jettySize=auto;html=1;entryX=0.5;entryY=1;entryDx=0;entryDy=0;" parent="1" source="RLsNyQYbH4PFIlgkzAy3-3" target="RLsNyQYbH4PFIlgkzAy3-2" edge="1"><mxGeometry relative="1" as="geometry"/></mxCell><mxCell id="RLsNyQYbH4PFIlgkzAy3-3" value="«interface»&lt;br&gt;&lt;b&gt;Queue&lt;br&gt;&lt;/b&gt;" style="html=1;whiteSpace=wrap;" parent="1" vertex="1"><mxGeometry x="-30" y="350" width="110" height="50" as="geometry"/></mxCell><mxCell id="RLsNyQYbH4PFIlgkzAy3-21" style="edgeStyle=orthogonalEdgeStyle;rounded=0;orthogonalLoop=1;jettySize=auto;html=1;entryX=0.5;entryY=1;entryDx=0;entryDy=0;" parent="1" source="RLsNyQYbH4PFIlgkzAy3-4" target="RLsNyQYbH4PFIlgkzAy3-2" edge="1"><mxGeometry relative="1" as="geometry"><Array as="points"><mxPoint x="-315" y="300"/><mxPoint x="25" y="300"/></Array></mxGeometry></mxCell><mxCell id="RLsNyQYbH4PFIlgkzAy3-4" value="«interface»&lt;br&gt;&lt;b&gt;List&lt;/b&gt;" style="html=1;whiteSpace=wrap;" parent="1" vertex="1"><mxGeometry x="-370" y="350" width="110" height="50" as="geometry"/></mxCell><mxCell id="RLsNyQYbH4PFIlgkzAy3-22" style="edgeStyle=orthogonalEdgeStyle;rounded=0;orthogonalLoop=1;jettySize=auto;html=1;entryX=0.5;entryY=1;entryDx=0;entryDy=0;" parent="1" source="RLsNyQYbH4PFIlgkzAy3-5" target="RLsNyQYbH4PFIlgkzAy3-2" edge="1"><mxGeometry relative="1" as="geometry"><Array as="points"><mxPoint x="355" y="300"/><mxPoint x="25" y="300"/></Array></mxGeometry></mxCell><mxCell id="RLsNyQYbH4PFIlgkzAy3-5" value="«interface»&lt;br&gt;&lt;b&gt;Set&lt;/b&gt;" style="html=1;whiteSpace=wrap;" parent="1" vertex="1"><mxGeometry x="300" y="350" width="110" height="50" as="geometry"/></mxCell><mxCell id="RLsNyQYbH4PFIlgkzAy3-25" style="edgeStyle=orthogonalEdgeStyle;rounded=0;orthogonalLoop=1;jettySize=auto;html=1;entryX=0.5;entryY=1;entryDx=0;entryDy=0;dashed=1;" parent="1" source="RLsNyQYbH4PFIlgkzAy3-6" target="RLsNyQYbH4PFIlgkzAy3-4" edge="1"><mxGeometry relative="1" as="geometry"><Array as="points"><mxPoint x="-315" y="530"/></Array></mxGeometry></mxCell><mxCell id="RLsNyQYbH4PFIlgkzAy3-6" value="&lt;p style=&quot;margin:0px;margin-top:4px;text-align:center;&quot;&gt;&lt;b&gt;ArrayList&lt;/b&gt;&lt;/p&gt;&lt;hr size=&quot;1&quot;&gt;&lt;div style=&quot;height:2px;&quot;&gt;&lt;/div&gt;" style="verticalAlign=top;align=left;overflow=fill;fontSize=12;fontFamily=Helvetica;html=1;whiteSpace=wrap;" parent="1" vertex="1"><mxGeometry x="-290" y="500" width="140" height="60" as="geometry"/></mxCell><mxCell id="RLsNyQYbH4PFIlgkzAy3-24" style="edgeStyle=orthogonalEdgeStyle;rounded=0;orthogonalLoop=1;jettySize=auto;html=1;entryX=0.5;entryY=1;entryDx=0;entryDy=0;dashed=1;" parent="1" source="RLsNyQYbH4PFIlgkzAy3-7" target="RLsNyQYbH4PFIlgkzAy3-4" edge="1"><mxGeometry relative="1" as="geometry"><Array as="points"><mxPoint x="-315" y="650"/></Array></mxGeometry></mxCell><mxCell id="RLsNyQYbH4PFIlgkzAy3-56" style="edgeStyle=orthogonalEdgeStyle;rounded=0;orthogonalLoop=1;jettySize=auto;html=1;endArrow=none;endFill=0;dashed=1;" parent="1" source="RLsNyQYbH4PFIlgkzAy3-7" edge="1"><mxGeometry relative="1" as="geometry"><mxPoint x="-60" y="710" as="targetPoint"/><Array as="points"><mxPoint x="-80" y="650"/><mxPoint x="-80" y="710"/></Array></mxGeometry></mxCell><mxCell id="RLsNyQYbH4PFIlgkzAy3-7" value="&lt;p style=&quot;margin:0px;margin-top:4px;text-align:center;&quot;&gt;&lt;b&gt;LinkedList&lt;/b&gt;&lt;/p&gt;&lt;hr size=&quot;1&quot;&gt;&lt;div style=&quot;height:2px;&quot;&gt;&lt;/div&gt;" style="verticalAlign=top;align=left;overflow=fill;fontSize=12;fontFamily=Helvetica;html=1;whiteSpace=wrap;" parent="1" vertex="1"><mxGeometry x="-290" y="620" width="140" height="60" as="geometry"/></mxCell><mxCell id="RLsNyQYbH4PFIlgkzAy3-26" style="edgeStyle=orthogonalEdgeStyle;rounded=0;orthogonalLoop=1;jettySize=auto;html=1;entryX=0.5;entryY=1;entryDx=0;entryDy=0;exitX=0;exitY=0.5;exitDx=0;exitDy=0;dashed=1;" parent="1" source="RLsNyQYbH4PFIlgkzAy3-8" target="RLsNyQYbH4PFIlgkzAy3-4" edge="1"><mxGeometry relative="1" as="geometry"/></mxCell><mxCell id="RLsNyQYbH4PFIlgkzAy3-8" value="&lt;p style=&quot;margin:0px;margin-top:4px;text-align:center;&quot;&gt;&lt;b&gt;Vector&lt;/b&gt;&lt;/p&gt;&lt;hr size=&quot;1&quot;&gt;&lt;div style=&quot;height:2px;&quot;&gt;&lt;/div&gt;" style="verticalAlign=top;align=left;overflow=fill;fontSize=12;fontFamily=Helvetica;html=1;whiteSpace=wrap;" parent="1" vertex="1"><mxGeometry x="-290" y="730" width="140" height="60" as="geometry"/></mxCell><mxCell id="RLsNyQYbH4PFIlgkzAy3-27" style="edgeStyle=orthogonalEdgeStyle;rounded=0;orthogonalLoop=1;jettySize=auto;html=1;entryX=0.5;entryY=1;entryDx=0;entryDy=0;" parent="1" source="RLsNyQYbH4PFIlgkzAy3-9" target="RLsNyQYbH4PFIlgkzAy3-8" edge="1"><mxGeometry relative="1" as="geometry"/></mxCell><mxCell id="RLsNyQYbH4PFIlgkzAy3-9" value="&lt;p style=&quot;margin:0px;margin-top:4px;text-align:center;&quot;&gt;&lt;b&gt;Stack&lt;/b&gt;&lt;/p&gt;&lt;hr size=&quot;1&quot;&gt;&lt;div style=&quot;height:2px;&quot;&gt;&lt;/div&gt;" style="verticalAlign=top;align=left;overflow=fill;fontSize=12;fontFamily=Helvetica;html=1;whiteSpace=wrap;" parent="1" vertex="1"><mxGeometry x="-290" y="850" width="140" height="60" as="geometry"/></mxCell><mxCell id="RLsNyQYbH4PFIlgkzAy3-31" style="edgeStyle=orthogonalEdgeStyle;rounded=0;orthogonalLoop=1;jettySize=auto;html=1;entryX=0.5;entryY=1;entryDx=0;entryDy=0;" parent="1" source="RLsNyQYbH4PFIlgkzAy3-10" target="RLsNyQYbH4PFIlgkzAy3-3" edge="1"><mxGeometry relative="1" as="geometry"/></mxCell><mxCell id="RLsNyQYbH4PFIlgkzAy3-10" value="«interface»&lt;br&gt;&lt;b&gt;Deque&lt;/b&gt;" style="html=1;whiteSpace=wrap;" parent="1" vertex="1"><mxGeometry x="-40" y="630" width="110" height="50" as="geometry"/></mxCell><mxCell id="RLsNyQYbH4PFIlgkzAy3-30" style="edgeStyle=orthogonalEdgeStyle;rounded=0;orthogonalLoop=1;jettySize=auto;html=1;entryX=0.75;entryY=1;entryDx=0;entryDy=0;dashed=1;" parent="1" source="RLsNyQYbH4PFIlgkzAy3-11" target="RLsNyQYbH4PFIlgkzAy3-3" edge="1"><mxGeometry relative="1" as="geometry"/></mxCell><mxCell id="RLsNyQYbH4PFIlgkzAy3-11" value="&lt;p style=&quot;margin:0px;margin-top:4px;text-align:center;&quot;&gt;&lt;b&gt;PrioriryQueue&lt;/b&gt;&lt;/p&gt;&lt;hr size=&quot;1&quot;&gt;&lt;div style=&quot;height:2px;&quot;&gt;&lt;/div&gt;" style="verticalAlign=top;align=left;overflow=fill;fontSize=12;fontFamily=Helvetica;html=1;whiteSpace=wrap;" parent="1" vertex="1"><mxGeometry x="60" y="480" width="140" height="60" as="geometry"/></mxCell><mxCell id="RLsNyQYbH4PFIlgkzAy3-32" style="edgeStyle=orthogonalEdgeStyle;rounded=0;orthogonalLoop=1;jettySize=auto;html=1;dashed=1;" parent="1" source="RLsNyQYbH4PFIlgkzAy3-12" edge="1"><mxGeometry relative="1" as="geometry"><mxPoint x="20" y="680" as="targetPoint"/><Array as="points"><mxPoint x="90" y="740"/><mxPoint x="20" y="740"/><mxPoint x="20" y="680"/></Array></mxGeometry></mxCell><mxCell id="RLsNyQYbH4PFIlgkzAy3-12" value="&lt;p style=&quot;margin:0px;margin-top:4px;text-align:center;&quot;&gt;&lt;b&gt;ArrayDeque&lt;/b&gt;&lt;/p&gt;&lt;hr size=&quot;1&quot;&gt;&lt;div style=&quot;height:2px;&quot;&gt;&lt;/div&gt;" style="verticalAlign=top;align=left;overflow=fill;fontSize=12;fontFamily=Helvetica;html=1;whiteSpace=wrap;" parent="1" vertex="1"><mxGeometry x="20" y="770" width="140" height="60" as="geometry"/></mxCell><mxCell id="RLsNyQYbH4PFIlgkzAy3-35" style="edgeStyle=orthogonalEdgeStyle;rounded=0;orthogonalLoop=1;jettySize=auto;html=1;entryX=0.5;entryY=1;entryDx=0;entryDy=0;" parent="1" source="RLsNyQYbH4PFIlgkzAy3-13" target="RLsNyQYbH4PFIlgkzAy3-5" edge="1"><mxGeometry relative="1" as="geometry"/></mxCell><mxCell id="RLsNyQYbH4PFIlgkzAy3-13" value="«interface»&lt;br&gt;&lt;b&gt;SortedSet&lt;/b&gt;" style="html=1;whiteSpace=wrap;" parent="1" vertex="1"><mxGeometry x="300" y="675" width="110" height="50" as="geometry"/></mxCell><mxCell id="RLsNyQYbH4PFIlgkzAy3-33" style="edgeStyle=orthogonalEdgeStyle;rounded=0;orthogonalLoop=1;jettySize=auto;html=1;entryX=0.75;entryY=1;entryDx=0;entryDy=0;dashed=1;" parent="1" source="RLsNyQYbH4PFIlgkzAy3-14" target="RLsNyQYbH4PFIlgkzAy3-5" edge="1"><mxGeometry relative="1" as="geometry"/></mxCell><mxCell id="RLsNyQYbH4PFIlgkzAy3-14" value="&lt;p style=&quot;margin:0px;margin-top:4px;text-align:center;&quot;&gt;&lt;b&gt;HashSet&lt;/b&gt;&lt;/p&gt;&lt;hr size=&quot;1&quot;&gt;&lt;div style=&quot;height:2px;&quot;&gt;&lt;/div&gt;" style="verticalAlign=top;align=left;overflow=fill;fontSize=12;fontFamily=Helvetica;html=1;whiteSpace=wrap;" parent="1" vertex="1"><mxGeometry x="410" y="470" width="140" height="60" as="geometry"/></mxCell><mxCell id="RLsNyQYbH4PFIlgkzAy3-37" style="edgeStyle=orthogonalEdgeStyle;rounded=0;orthogonalLoop=1;jettySize=auto;html=1;entryX=0.75;entryY=1;entryDx=0;entryDy=0;dashed=1;" parent="1" source="RLsNyQYbH4PFIlgkzAy3-17" target="RLsNyQYbH4PFIlgkzAy3-5" edge="1"><mxGeometry relative="1" as="geometry"><Array as="points"><mxPoint x="383" y="595"/><mxPoint x="383" y="482"/></Array></mxGeometry></mxCell><mxCell id="RLsNyQYbH4PFIlgkzAy3-17" value="&lt;p style=&quot;margin:0px;margin-top:4px;text-align:center;&quot;&gt;&lt;b&gt;LinkedHashSet&lt;/b&gt;&lt;/p&gt;&lt;hr size=&quot;1&quot;&gt;&lt;div style=&quot;height:2px;&quot;&gt;&lt;/div&gt;" style="verticalAlign=top;align=left;overflow=fill;fontSize=12;fontFamily=Helvetica;html=1;whiteSpace=wrap;" parent="1" vertex="1"><mxGeometry x="410" y="565" width="140" height="60" as="geometry"/></mxCell><mxCell id="RLsNyQYbH4PFIlgkzAy3-36" style="edgeStyle=orthogonalEdgeStyle;rounded=0;orthogonalLoop=1;jettySize=auto;html=1;entryX=0.5;entryY=1;entryDx=0;entryDy=0;strokeColor=none;dashed=1;" parent="1" source="RLsNyQYbH4PFIlgkzAy3-18" target="RLsNyQYbH4PFIlgkzAy3-13" edge="1"><mxGeometry relative="1" as="geometry"/></mxCell><mxCell id="RLsNyQYbH4PFIlgkzAy3-55" style="edgeStyle=orthogonalEdgeStyle;rounded=0;orthogonalLoop=1;jettySize=auto;html=1;strokeColor=#FFF5F5;dashed=1;fillColor=#0050ef;" parent="1" source="RLsNyQYbH4PFIlgkzAy3-18" target="RLsNyQYbH4PFIlgkzAy3-13" edge="1"><mxGeometry relative="1" as="geometry"><Array as="points"><mxPoint x="360" y="750"/><mxPoint x="360" y="750"/></Array></mxGeometry></mxCell><mxCell id="RLsNyQYbH4PFIlgkzAy3-18" value="&lt;p style=&quot;margin:0px;margin-top:4px;text-align:center;&quot;&gt;&lt;b&gt;TreeSet&lt;/b&gt;&lt;/p&gt;&lt;hr size=&quot;1&quot;&gt;&lt;div style=&quot;height:2px;&quot;&gt;&lt;/div&gt;" style="verticalAlign=top;align=left;overflow=fill;fontSize=12;fontFamily=Helvetica;html=1;whiteSpace=wrap;" parent="1" vertex="1"><mxGeometry x="285" y="790" width="140" height="60" as="geometry"/></mxCell><mxCell id="RLsNyQYbH4PFIlgkzAy3-38" value="«interface»&lt;br&gt;&lt;b&gt;Map&lt;/b&gt;" style="html=1;whiteSpace=wrap;" parent="1" vertex="1"><mxGeometry x="880" y="351" width="110" height="50" as="geometry"/></mxCell><mxCell id="RLsNyQYbH4PFIlgkzAy3-52" style="edgeStyle=orthogonalEdgeStyle;rounded=0;orthogonalLoop=1;jettySize=auto;html=1;entryX=1;entryY=1;entryDx=0;entryDy=0;" parent="1" source="RLsNyQYbH4PFIlgkzAy3-41" target="RLsNyQYbH4PFIlgkzAy3-38" edge="1"><mxGeometry relative="1" as="geometry"/></mxCell><mxCell id="RLsNyQYbH4PFIlgkzAy3-41" value="«interface»&lt;br&gt;&lt;b&gt;SortedMap&lt;/b&gt;" style="html=1;whiteSpace=wrap;" parent="1" vertex="1"><mxGeometry x="1020" y="470" width="110" height="50" as="geometry"/></mxCell><mxCell id="RLsNyQYbH4PFIlgkzAy3-49" style="edgeStyle=orthogonalEdgeStyle;rounded=0;orthogonalLoop=1;jettySize=auto;html=1;entryX=0;entryY=1;entryDx=0;entryDy=0;dashed=1;" parent="1" source="RLsNyQYbH4PFIlgkzAy3-42" target="RLsNyQYbH4PFIlgkzAy3-38" edge="1"><mxGeometry relative="1" as="geometry"><Array as="points"><mxPoint x="770" y="510"/><mxPoint x="850" y="510"/><mxPoint x="850" y="430"/><mxPoint x="880" y="430"/></Array></mxGeometry></mxCell><mxCell id="RLsNyQYbH4PFIlgkzAy3-42" value="&lt;p style=&quot;margin:0px;margin-top:4px;text-align:center;&quot;&gt;&lt;b&gt;HashMap&lt;/b&gt;&lt;/p&gt;&lt;hr size=&quot;1&quot;&gt;&lt;div style=&quot;height:2px;&quot;&gt;&lt;/div&gt;" style="verticalAlign=top;align=left;overflow=fill;fontSize=12;fontFamily=Helvetica;html=1;whiteSpace=wrap;" parent="1" vertex="1"><mxGeometry x="700" y="600" width="140" height="60" as="geometry"/></mxCell><mxCell id="RLsNyQYbH4PFIlgkzAy3-48" style="edgeStyle=orthogonalEdgeStyle;rounded=0;orthogonalLoop=1;jettySize=auto;html=1;entryX=0.25;entryY=1;entryDx=0;entryDy=0;exitX=0.5;exitY=0;exitDx=0;exitDy=0;dashed=1;" parent="1" source="RLsNyQYbH4PFIlgkzAy3-43" target="RLsNyQYbH4PFIlgkzAy3-38" edge="1"><mxGeometry relative="1" as="geometry"><Array as="points"><mxPoint x="970" y="580"/><mxPoint x="908" y="580"/><mxPoint x="908" y="401"/></Array></mxGeometry></mxCell><mxCell id="RLsNyQYbH4PFIlgkzAy3-43" value="&lt;p style=&quot;margin:0px;margin-top:4px;text-align:center;&quot;&gt;&lt;b&gt;LinkedHashMap&lt;/b&gt;&lt;/p&gt;&lt;hr size=&quot;1&quot;&gt;&lt;div style=&quot;height:2px;&quot;&gt;&lt;/div&gt;" style="verticalAlign=top;align=left;overflow=fill;fontSize=12;fontFamily=Helvetica;html=1;whiteSpace=wrap;" parent="1" vertex="1"><mxGeometry x="900" y="600" width="140" height="60" as="geometry"/></mxCell><mxCell id="RLsNyQYbH4PFIlgkzAy3-50" style="edgeStyle=orthogonalEdgeStyle;rounded=0;orthogonalLoop=1;jettySize=auto;html=1;entryX=0.75;entryY=1;entryDx=0;entryDy=0;dashed=1;" parent="1" source="RLsNyQYbH4PFIlgkzAy3-44" target="RLsNyQYbH4PFIlgkzAy3-38" edge="1"><mxGeometry relative="1" as="geometry"><Array as="points"><mxPoint x="1180" y="550"/><mxPoint x="963" y="550"/></Array></mxGeometry></mxCell><mxCell id="RLsNyQYbH4PFIlgkzAy3-44" value="&lt;p style=&quot;margin:0px;margin-top:4px;text-align:center;&quot;&gt;&lt;b&gt;HashTable&lt;/b&gt;&lt;/p&gt;&lt;hr size=&quot;1&quot;&gt;&lt;div style=&quot;height:2px;&quot;&gt;&lt;/div&gt;" style="verticalAlign=top;align=left;overflow=fill;fontSize=12;fontFamily=Helvetica;html=1;whiteSpace=wrap;" parent="1" vertex="1"><mxGeometry x="1110" y="600" width="140" height="60" as="geometry"/></mxCell><mxCell id="RLsNyQYbH4PFIlgkzAy3-46" style="edgeStyle=orthogonalEdgeStyle;rounded=0;orthogonalLoop=1;jettySize=auto;html=1;entryX=1;entryY=0.5;entryDx=0;entryDy=0;dashed=1;" parent="1" source="RLsNyQYbH4PFIlgkzAy3-45" target="RLsNyQYbH4PFIlgkzAy3-41" edge="1"><mxGeometry relative="1" as="geometry"><Array as="points"><mxPoint x="1380" y="540"/><mxPoint x="1220" y="540"/><mxPoint x="1220" y="495"/></Array></mxGeometry></mxCell><mxCell id="RLsNyQYbH4PFIlgkzAy3-45" value="&lt;p style=&quot;margin:0px;margin-top:4px;text-align:center;&quot;&gt;&lt;b&gt;TreeMap&lt;/b&gt;&lt;/p&gt;&lt;hr size=&quot;1&quot;&gt;&lt;div style=&quot;height:2px;&quot;&gt;&lt;/div&gt;" style="verticalAlign=top;align=left;overflow=fill;fontSize=12;fontFamily=Helvetica;html=1;whiteSpace=wrap;" parent="1" vertex="1"><mxGeometry x="1310" y="600" width="140" height="60" as="geometry"/></mxCell><mxCell id="RLsNyQYbH4PFIlgkzAy3-58" style="edgeStyle=orthogonalEdgeStyle;rounded=0;orthogonalLoop=1;jettySize=auto;html=1;endArrow=none;endFill=0;dashed=1;" parent="1" edge="1"><mxGeometry relative="1" as="geometry"><mxPoint x="-70" y="710" as="targetPoint"/><mxPoint x="20" y="710" as="sourcePoint"/><Array as="points"><mxPoint x="-60" y="710"/><mxPoint x="-60" y="710"/></Array></mxGeometry></mxCell></root></mxGraphModel></diagram></mxfile>